<svg width="527" height="204" viewBox="0 0 527 204" fill="none" xmlns="http://www.w3.org/2000/svg">
<path fill-rule="evenodd" clip-rule="evenodd" d="M310.138 -322.158C289.705 -300.525 264.389 -271.019 255.939 -237.951C253.168 -227.109 252.21 -215.882 253.831 -204.424C252.157 -196.6 251.457 -188.588 252.012 -180.445C251.959 -180.241 251.906 -180.037 251.854 -179.833C250.207 -173.386 249.2 -166.804 248.995 -160.117C248.248 -157.843 247.575 -155.551 246.985 -153.241C246.605 -151.755 246.26 -150.262 245.95 -148.763C227.995 -128.601 209.1 -103.414 202.025 -75.729C197.797 -59.1855 197.79 -41.7465 204.725 -23.9598C211.66 -6.17585 225.526 11.9329 249.009 29.8347C303.705 71.5305 355.265 72.7369 394.951 73.6655C398.636 73.7518 402.218 73.8356 405.692 73.9492C426.152 74.6186 442.739 76.3234 454.168 85.5367C465.578 94.7343 471.92 111.484 471.681 142.456L472.253 142.461C472.492 111.437 466.146 94.4582 454.527 85.0919C442.927 75.7412 426.143 74.0467 405.71 73.3782C402.235 73.2645 398.652 73.1805 394.968 73.0942C355.288 72.1644 303.899 70.96 249.356 29.3803C225.933 11.5247 212.144 -6.50499 205.257 -24.1674C198.371 -41.827 198.376 -59.1422 202.579 -75.5875C209.535 -102.81 227.99 -127.638 245.728 -147.652C245.573 -146.855 245.429 -146.055 245.295 -145.254C244.85 -144.206 244.419 -143.154 244.004 -142.096C232.285 -126.384 222.02 -108.725 217.213 -89.9135C212.985 -73.3701 212.977 -55.931 219.913 -38.1443C226.847 -20.3604 240.714 -2.25161 264.197 15.6501C318.893 57.3459 370.453 58.5524 410.138 59.481C413.823 59.5672 417.406 59.651 420.879 59.7647C441.339 60.4341 457.927 62.1388 469.356 71.3521C480.766 80.5497 487.107 97.2991 486.869 128.272L487.44 128.276C487.679 97.2528 481.334 80.2736 469.714 70.9073C458.115 61.5567 441.33 59.8621 420.898 59.1937C417.439 59.0805 413.875 58.9969 410.209 58.9109L410.179 58.9101L410.16 58.9098L410.156 58.9097C370.476 57.9798 319.087 56.7755 264.543 15.1958C241.121 -2.65984 227.332 -20.6895 220.445 -38.3519C213.559 -56.0115 213.564 -73.3267 217.766 -89.7721C222.383 -107.84 232.066 -124.853 243.242 -140.104C243.088 -139.692 242.937 -139.278 242.788 -138.864C237.181 -128.966 232.616 -118.537 229.854 -107.727C225.626 -91.1831 225.618 -73.7441 232.554 -55.9574C239.488 -38.1735 253.355 -20.0647 276.838 -2.16296C331.534 39.5329 383.094 40.7393 422.779 41.6679C426.464 41.7542 430.047 41.838 433.52 41.9516C453.98 42.621 470.568 44.3258 481.997 53.5391C493.407 62.7367 499.748 79.4861 499.51 110.459L500.081 110.463C500.32 79.4397 493.975 62.4606 482.355 53.0943C470.756 43.7436 453.971 42.0491 433.539 41.3806C430.064 41.2669 426.481 41.183 422.797 41.0966C383.117 40.1667 331.728 38.9624 277.184 -2.61729C253.761 -20.4729 239.973 -38.5026 233.086 -56.165C226.2 -73.8246 226.205 -91.1398 230.407 -107.585C232.894 -117.318 236.851 -126.744 241.719 -135.754C240.988 -133.521 240.329 -131.269 239.749 -129.001C235.522 -112.458 235.514 -95.019 242.45 -77.2323C249.384 -59.4483 263.251 -41.3395 286.734 -23.4378C341.43 18.258 392.99 19.4645 432.675 20.3931C436.36 20.4793 439.943 20.5631 443.416 20.6768C463.876 21.3461 480.464 23.0509 491.893 32.2642C503.303 41.4618 509.644 58.2112 509.406 89.1839L509.977 89.1883C510.216 58.1648 503.871 41.1857 492.251 31.8194C480.652 22.4688 463.867 20.7742 443.435 20.1058C439.976 19.9926 436.411 19.909 432.746 19.823L432.716 19.8222L432.697 19.8218L432.693 19.8218C393.013 18.8919 341.624 17.6876 287.08 -23.8922C263.657 -41.7478 249.869 -59.7775 242.982 -77.4398C236.096 -95.0995 236.101 -112.415 240.303 -128.86C241.144 -132.152 242.154 -135.408 243.309 -138.626C243.762 -139.424 244.222 -140.22 244.688 -141.011C243.165 -128.188 244.437 -114.929 249.685 -101.471C256.62 -83.6875 270.486 -65.5787 293.969 -47.677C348.665 -5.98116 400.225 -4.7747 439.911 -3.84609C443.596 -3.75988 447.178 -3.67605 450.652 -3.56241C471.112 -2.89304 487.699 -1.18825 499.129 8.02503C510.538 17.2227 516.88 33.972 516.641 64.9447L517.213 64.9491C517.452 33.9257 511.106 16.9465 499.487 7.58024C487.887 -1.77038 471.103 -3.46495 450.67 -4.13341C447.212 -4.24656 443.647 -4.3302 439.982 -4.41619L439.951 -4.41696L439.933 -4.41734L439.928 -4.4174C400.248 -5.34729 348.859 -6.55159 294.316 -48.1313C270.893 -65.9869 257.104 -84.0166 250.217 -101.679C244.83 -115.495 243.661 -129.099 245.419 -142.242C246.227 -143.589 247.053 -144.926 247.896 -146.252C248.426 -146.932 248.958 -147.607 249.492 -148.279C250.267 -141.612 251.903 -134.863 254.554 -128.064C261.489 -110.28 275.355 -92.1714 298.839 -74.2697C353.534 -32.5739 405.095 -31.3674 444.78 -30.4388C448.465 -30.3526 452.048 -30.2688 455.521 -30.1551C475.981 -29.4858 492.568 -27.781 503.998 -18.5677C515.408 -9.37007 521.749 7.37932 521.511 38.352L522.082 38.3564C522.321 7.33294 515.975 -9.64618 504.356 -19.0125C492.756 -28.3631 475.972 -30.0577 455.54 -30.7261C452.081 -30.8393 448.516 -30.9229 444.851 -31.0089L444.82 -31.0097L444.802 -31.0101L444.797 -31.0101C405.118 -31.94 353.728 -33.1443 299.185 -74.724C275.762 -92.5797 261.974 -110.609 255.087 -128.272C252.379 -135.215 250.737 -142.105 249.996 -148.91C252.327 -151.823 254.689 -154.658 257.054 -157.412C257.175 -157.092 257.297 -156.771 257.422 -156.45C264.357 -138.666 278.224 -120.558 301.707 -102.656C356.403 -60.9601 407.963 -59.7537 447.648 -58.8251C451.333 -58.7388 454.916 -58.655 458.389 -58.5414C478.849 -57.872 495.436 -56.1672 506.866 -46.9539C518.276 -37.7563 524.617 -21.0069 524.379 9.96574L524.95 9.97011C525.189 -21.0533 518.844 -38.0324 507.224 -47.3987C495.625 -56.7493 478.84 -58.4439 458.408 -59.1124C454.949 -59.2255 451.384 -59.3092 447.719 -59.3952L447.688 -59.3959L447.67 -59.3963L447.666 -59.3964C407.986 -60.3262 356.597 -61.5306 302.053 -103.11C278.63 -120.966 264.842 -138.996 257.955 -156.658C257.792 -157.074 257.634 -157.49 257.479 -157.906C260.838 -161.802 264.199 -165.532 267.48 -169.079C275.4 -156.865 286.932 -144.578 302.923 -132.388C357.619 -90.6918 409.179 -89.4853 448.865 -88.5567C452.55 -88.4705 456.132 -88.3866 459.606 -88.273C480.066 -87.6036 496.653 -85.8988 508.082 -76.6856C519.492 -67.4879 525.834 -50.7385 525.595 -19.7659L526.166 -19.7615C526.405 -50.7849 520.06 -67.764 508.441 -77.1304C496.841 -86.481 480.057 -88.1755 459.624 -88.844C456.166 -88.9572 452.601 -89.0408 448.936 -89.1268L448.905 -89.1276L448.887 -89.1279L448.882 -89.128C409.202 -90.0579 357.813 -91.2622 303.27 -132.842C287.266 -145.042 275.76 -157.322 267.88 -169.512C269.211 -170.948 270.529 -172.353 271.827 -173.728L271.412 -174.12C270.145 -172.779 268.86 -171.408 267.561 -170.008C267.231 -170.525 266.908 -171.042 266.59 -171.559C272.608 -178.77 278.726 -185.462 284.468 -191.541L284.052 -191.933C278.35 -185.895 272.267 -179.245 266.276 -172.074C265.396 -173.528 264.566 -174.98 263.785 -176.43C273.467 -190.056 284.475 -202.346 294.364 -212.816L293.948 -213.208C284.117 -202.799 273.155 -190.567 263.485 -176.993C262.284 -179.26 261.204 -181.523 260.238 -183.781C271.755 -204.215 287.771 -222.415 301.599 -237.055L301.184 -237.447C287.445 -222.902 271.5 -204.798 259.957 -184.444C259.686 -185.093 259.424 -185.742 259.171 -186.39C258.281 -188.673 257.505 -190.952 256.84 -193.223C267.746 -220.64 288.878 -245.024 306.469 -263.647L306.053 -264.04C288.612 -245.575 267.614 -221.374 256.583 -194.117C255.615 -197.564 254.898 -200.994 254.411 -204.404C254.675 -205.633 254.964 -206.858 255.276 -208.078C263.686 -240.988 288.901 -270.398 309.337 -292.034L308.921 -292.426C288.488 -270.793 263.173 -241.288 254.722 -208.22C254.538 -207.498 254.362 -206.775 254.194 -206.05C252.877 -216.891 253.863 -227.521 256.492 -237.81C264.902 -270.719 290.117 -300.13 310.553 -321.765L310.138 -322.158ZM246.479 -148.497C246.413 -148.175 246.349 -147.853 246.286 -147.53C246.514 -148.041 246.746 -148.551 246.981 -149.059C246.814 -148.872 246.646 -148.685 246.479 -148.497ZM248.304 -150.532C248.598 -150.857 248.891 -151.181 249.184 -151.504C249.233 -150.855 249.29 -150.205 249.355 -149.554C248.705 -148.571 248.063 -147.581 247.43 -146.586C246.862 -145.857 246.295 -145.123 245.732 -144.385C245.769 -144.622 245.808 -144.858 245.847 -145.094C246.624 -146.921 247.444 -148.734 248.304 -150.532ZM249.715 -152.088C251.638 -154.198 253.541 -156.249 255.408 -158.236C253.509 -155.644 251.653 -153.001 249.857 -150.309C249.803 -150.903 249.755 -151.496 249.715 -152.088ZM256.17 -159.878C254.046 -157.629 251.869 -155.295 249.665 -152.88C249.657 -153.006 249.65 -153.131 249.644 -153.256C251.343 -156.623 253.177 -159.935 255.117 -163.186C255.442 -162.085 255.793 -160.982 256.17 -159.878ZM247.826 -150.855C247.456 -150.445 247.086 -150.034 246.716 -149.62C246.969 -150.784 247.243 -151.944 247.539 -153.099C247.969 -154.783 248.443 -156.457 248.958 -158.122C248.948 -156.546 248.983 -154.964 249.065 -153.377C248.644 -152.54 248.23 -151.699 247.826 -150.855ZM256.826 -158.024C254.983 -155.882 253.141 -153.689 251.313 -151.449C253.01 -153.946 254.758 -156.401 256.542 -158.812C256.635 -158.549 256.73 -158.287 256.826 -158.024ZM267.16 -169.575C263.912 -166.066 260.583 -162.376 257.254 -158.52C257.151 -158.802 257.051 -159.083 256.952 -159.365C259.96 -163.407 263.067 -167.322 266.205 -171.096C266.517 -170.589 266.835 -170.082 267.16 -169.575ZM265.889 -171.61C265.017 -173.045 264.193 -174.478 263.417 -175.91C260.653 -171.997 258.001 -167.974 255.518 -163.854C255.885 -162.577 256.288 -161.298 256.726 -160.017C259.709 -164.012 262.785 -167.881 265.889 -171.61ZM254.9 -163.935C253.025 -160.815 251.247 -157.638 249.59 -154.41C249.516 -156.286 249.509 -158.156 249.564 -160.017C250.684 -163.417 251.973 -166.774 253.405 -170.085C253.817 -168.041 254.314 -165.991 254.9 -163.935ZM263.115 -176.472C260.387 -172.62 257.765 -168.661 255.305 -164.606C254.711 -166.745 254.213 -168.878 253.807 -171.004C255.629 -175.131 257.672 -179.184 259.886 -183.153C260.85 -180.93 261.925 -178.703 263.115 -176.472ZM259.602 -183.815C259.267 -184.605 258.946 -185.394 258.639 -186.182C257.834 -188.247 257.123 -190.306 256.5 -192.361C254.971 -188.429 253.654 -184.436 252.589 -180.39C252.782 -177.607 253.123 -174.808 253.623 -171.997C255.426 -176.01 257.434 -179.953 259.602 -183.815ZM253.212 -171.072C252.732 -173.616 252.382 -176.151 252.153 -178.673C250.82 -173.218 249.953 -167.669 249.649 -162.046C250.711 -165.09 251.905 -168.1 253.212 -171.072ZM256.236 -193.251C254.796 -189.613 253.535 -185.922 252.485 -182.183C252.157 -189.164 252.749 -196.046 254.079 -202.794C254.594 -199.629 255.308 -196.447 256.236 -193.251ZM184.746 -64.8957C193.197 -97.9637 218.512 -127.469 238.945 -149.102L239.361 -148.71C218.925 -127.074 193.71 -97.6638 185.3 -64.7542C181.097 -48.3089 181.093 -30.9937 187.979 -13.334C194.866 4.32834 208.654 22.358 232.077 40.2136C286.62 81.7934 338.01 82.9977 377.689 83.9276C381.373 84.0139 384.956 84.0979 388.431 84.2115C408.864 84.88 425.648 86.5746 437.248 95.9252C448.867 105.291 455.213 122.271 454.974 153.294L454.403 153.29C454.641 122.317 448.3 105.568 436.89 96.37C425.46 87.1567 408.873 85.4519 388.413 84.7825C384.94 84.6689 381.357 84.5851 377.672 84.4989C337.987 83.5702 286.426 82.3638 231.731 40.668C208.247 22.7663 194.381 4.65747 187.446 -13.1265C180.511 -30.9132 180.519 -48.3522 184.746 -64.8957ZM220.133 -140.994C199.7 -119.361 174.384 -89.8555 165.934 -56.7875C161.706 -40.244 161.698 -22.805 168.634 -5.01832C175.568 12.7656 189.435 30.8744 212.918 48.7762C267.614 90.472 319.174 91.6785 358.86 92.6071C362.545 92.6933 366.127 92.7771 369.601 92.8908C390.061 93.5601 406.648 95.2649 418.077 104.478C429.487 113.676 435.829 130.425 435.59 161.398L436.161 161.402C436.4 130.379 430.055 113.4 418.436 104.033C406.836 94.6828 390.052 92.9882 369.619 92.3197C366.144 92.2061 362.561 92.1221 358.877 92.0358C319.197 91.1058 267.808 89.9015 213.265 48.3218C189.842 30.4662 176.053 12.4365 169.166 -5.22586C162.28 -22.8855 162.285 -40.2007 166.487 -56.646C174.897 -89.5556 200.112 -118.966 220.548 -140.602L220.133 -140.994ZM146.102 -50.6371C154.552 -83.7051 179.867 -113.211 200.301 -134.843L200.716 -134.451C180.28 -112.816 155.065 -83.4052 146.655 -50.4956C142.453 -34.0503 142.448 -16.7351 149.334 0.924547C156.221 18.5869 170.01 36.6166 193.432 54.4722C247.976 96.0519 299.365 97.2562 339.045 98.1861C342.729 98.2725 346.312 98.3564 349.787 98.4701C370.219 99.1386 387.004 100.833 398.604 110.184C410.223 119.55 416.568 136.529 416.329 167.553L415.758 167.548C415.996 136.576 409.655 119.826 398.245 110.629C386.816 101.415 370.228 99.7105 349.768 99.0411C346.295 98.9275 342.712 98.8437 339.027 98.7574C299.342 97.8288 247.782 96.6224 193.086 54.9265C169.603 37.0248 155.736 18.9161 148.802 1.13209C141.866 -16.6546 141.874 -34.0936 146.102 -50.6371ZM179.87 -129.911C159.436 -108.279 134.121 -78.7728 125.671 -45.7048C121.443 -29.1613 121.435 -11.7223 128.371 6.06436C135.305 23.8483 149.172 41.9571 172.655 59.8588C227.351 101.555 278.911 102.761 318.597 103.69C322.281 103.776 325.864 103.86 329.337 103.973C349.797 104.643 366.385 106.348 377.814 115.561C389.224 124.758 395.565 141.508 395.327 172.481L395.898 172.485C396.137 141.461 389.792 124.482 378.173 115.116C366.573 105.765 349.789 104.071 329.356 103.402C325.882 103.289 322.301 103.205 318.618 103.119L318.614 103.118C278.934 102.189 227.545 100.984 173.001 59.4045C149.579 41.5489 135.79 23.5192 128.903 5.85681C122.017 -11.8028 122.022 -29.118 126.224 -45.5634C134.634 -78.4729 159.849 -107.883 180.285 -129.519L179.87 -129.911ZM104.956 -41.3678C113.406 -74.4358 138.722 -103.942 159.155 -125.574L159.57 -125.182C139.134 -103.546 113.919 -74.1359 105.509 -41.2263C101.307 -24.781 101.302 -7.46581 108.188 10.1938C115.075 27.8562 128.864 45.8859 152.286 63.7415C206.83 105.321 258.219 106.526 297.899 107.455L297.903 107.456C301.586 107.542 305.167 107.626 308.641 107.739C329.074 108.408 345.858 110.102 357.458 119.453C369.077 128.819 375.422 145.799 375.183 176.822L374.612 176.818C374.851 145.845 368.509 129.096 357.099 119.898C345.67 110.685 329.083 108.98 308.622 108.31C305.149 108.197 301.567 108.113 297.882 108.027C258.196 107.098 206.636 105.892 151.94 64.1958C128.457 46.2941 114.59 28.1853 107.656 10.4014C100.72 -7.38529 100.728 -24.8243 104.956 -41.3678ZM138.396 -121.337C117.962 -99.7046 92.647 -70.1989 84.1967 -37.1309C79.9691 -20.5874 79.9612 -3.14837 86.8967 14.6383C93.8311 32.4223 107.698 50.5311 131.181 68.4328C185.877 110.129 237.437 111.335 277.123 112.264C280.807 112.35 284.39 112.434 287.863 112.547C308.323 113.217 324.911 114.922 336.34 124.135C347.75 133.332 354.091 150.082 353.853 181.054L354.424 181.059C354.663 150.035 348.318 133.056 336.699 123.69C325.099 114.339 308.315 112.645 287.882 111.976C284.41 111.863 280.83 111.779 277.149 111.693L277.142 111.692L277.14 111.692C237.46 110.762 186.071 109.558 131.527 67.9784C108.105 50.1228 94.316 32.0931 87.429 14.4308C80.543 -3.22888 80.5477 -20.5441 84.7502 -36.9894C93.1601 -69.899 118.375 -99.3093 138.811 -120.945L138.396 -121.337ZM63.5621 -32.622C72.0124 -65.6901 97.3279 -95.1958 117.761 -116.828L118.176 -116.436C97.7404 -94.8005 72.5255 -65.3902 64.1156 -32.4806C59.9131 -16.0352 59.9085 1.27994 66.7944 18.9396C73.6814 36.602 87.4701 54.6316 110.893 72.4873C165.436 114.067 216.825 115.271 256.505 116.201L256.507 116.201L256.514 116.201C260.195 116.288 263.775 116.372 267.247 116.485C287.68 117.154 304.464 118.848 316.064 128.199C327.683 137.565 334.029 154.544 333.79 185.568L333.218 185.563C333.457 154.591 327.116 137.841 315.706 128.644C304.276 119.43 287.689 117.726 267.229 117.056C263.755 116.943 260.173 116.859 256.488 116.772C216.802 115.844 165.242 114.637 110.546 72.9416C87.0633 55.0399 73.1966 36.9311 66.2621 19.1471C59.3267 1.36045 59.3345 -16.0786 63.5621 -32.622ZM97.3885 -111.775C76.9553 -90.1425 51.6399 -60.6368 43.1896 -27.5688C38.962 -11.0253 38.9541 6.41369 45.8896 24.2004C52.824 41.9843 66.6907 60.0931 90.1739 77.9948C144.87 119.691 196.43 120.897 236.115 121.826C239.8 121.912 243.383 121.996 246.856 122.109C267.316 122.779 283.904 124.484 295.333 133.697C306.743 142.894 313.084 159.644 312.846 190.617L313.417 190.621C313.656 159.598 307.311 142.618 295.692 133.252C284.092 123.901 267.307 122.207 246.875 121.538C243.402 121.425 239.822 121.341 236.142 121.255L236.135 121.254L236.133 121.254C196.453 120.325 145.064 119.12 90.5202 77.5405C67.0976 59.6849 53.3089 41.6552 46.4219 23.9928C39.5359 6.33318 39.5406 -10.982 43.7431 -27.4273C52.1529 -60.3369 77.3679 -89.7473 97.8039 -111.383L97.3885 -111.775ZM23.1773 -21.782C31.6276 -54.85 56.943 -84.3557 77.3762 -105.988L77.7916 -105.596C57.3556 -83.9604 32.1406 -54.5501 23.7308 -21.6405C19.5283 -5.19518 19.5236 12.12 26.4096 29.7797C33.2966 47.442 47.0853 65.4717 70.5079 83.3273C125.051 124.907 176.441 126.111 216.12 127.041L216.125 127.041C219.807 127.128 223.389 127.212 226.863 127.325C247.295 127.994 264.079 129.688 275.679 139.039C287.298 148.405 293.644 165.384 293.405 196.408L292.834 196.403C293.072 165.431 286.731 148.681 275.321 139.484C263.891 130.27 247.304 128.566 226.844 127.896C223.371 127.783 219.788 127.699 216.103 127.613C176.418 126.684 124.857 125.477 70.1616 83.7817C46.6784 65.8799 32.8117 47.7712 25.8773 29.9872C18.9418 12.2005 18.9497 -5.2385 23.1773 -21.782ZM57.7946 -99.3423C37.3614 -77.7096 12.046 -48.2039 3.59564 -15.1359C-0.631939 1.40758 -0.639812 18.8466 6.29567 36.6333C13.2301 54.4173 27.0968 72.526 50.5799 90.4277C105.276 132.124 156.836 133.33 196.521 134.259C200.206 134.345 203.789 134.429 207.262 134.542C227.722 135.212 244.31 136.916 255.739 146.13C267.149 155.327 273.49 172.077 273.252 203.049L273.823 203.054C274.062 172.03 267.717 155.051 256.098 145.685C244.498 136.334 227.713 134.64 207.281 133.971C203.807 133.858 200.225 133.774 196.542 133.687L196.539 133.687C156.859 132.757 105.47 131.553 50.9263 89.9734C27.5036 72.1178 13.7149 54.0881 6.82794 36.4257C-0.0580088 18.7661 -0.05335 1.4509 4.14916 -14.9944C12.559 -47.904 37.7739 -77.3144 58.2099 -98.95L57.7946 -99.3423Z" fill="url(#paint0_radial_102_259)" fill-opacity="0.58"/>
<defs>
<radialGradient id="paint0_radial_102_259" cx="0" cy="0" r="1" gradientUnits="userSpaceOnUse" gradientTransform="translate(229.546 -1.43367) rotate(46.5667) scale(247.216 252.872)">
<stop/>
<stop offset="1" stop-color="#1E1E1E" stop-opacity="0"/>
<stop offset="1" stop-color="#0E0E35" stop-opacity="0"/>
<stop offset="1" stop-opacity="0"/>
</radialGradient>
</defs>
</svg>
